<?xml version="1.0" encoding="UTF-8" standalone="no"?><svg xmlns="http://www.w3.org/2000/svg" xmlns:xlink="http://www.w3.org/1999/xlink" contentStyleType="text/css" height="499px" preserveAspectRatio="none" style="width:708px;height:499px;background:#FFFFFF;" version="1.1" viewBox="0 0 708 499" width="708px" zoomAndPan="magnify"><defs/><g><!--MD5=[76d9cdf02100a9171729515c19c2b5c7]
cluster Taskfile_Zynq--><g id="cluster_Taskfile_Zynq"><path d="M87.5,6 L196.5,6 A3.75,3.75 0 0 1 199,8.5 L206,28.2969 L698.5,28.2969 A2.5,2.5 0 0 1 701,30.7969 L701,489.5 A2.5,2.5 0 0 1 698.5,492 L87.5,492 A2.5,2.5 0 0 1 85,489.5 L85,8.5 A2.5,2.5 0 0 1 87.5,6 " fill="none" style="stroke:#000000;stroke-width:1.5;"/><line style="stroke:#000000;stroke-width:1.5;" x1="85" x2="206" y1="28.2969" y2="28.2969"/><text fill="#000000" font-family="Comic Sans MS" font-size="14" font-weight="bold" lengthAdjust="spacing" textLength="108" x="89" y="20.9951">Taskfile_Zynq</text></g><g id="elem_UC1"><ellipse cx="232.0529" cy="58.2106" fill="#F1F1F1" rx="71.5529" ry="16.7106" style="stroke:#181818;stroke-width:0.5;"/><text fill="#000000" font-family="Comic Sans MS" font-size="14" lengthAdjust="spacing" textLength="97" x="180.5529" y="61.9581">Build bootgen</text></g><g id="elem_UC0"><ellipse cx="232.1551" cy="128.031" fill="#F1F1F1" rx="78.1551" ry="18.031" style="stroke:#181818;stroke-width:0.5;"/><text fill="#000000" font-family="Comic Sans MS" font-size="14" lengthAdjust="spacing" textLength="114" x="172.7659" y="131.6166">Build Bootloader</text></g><g id="elem_UC8"><ellipse cx="577.2877" cy="202.8575" fill="#F1F1F1" rx="107.2877" ry="23.8575" style="stroke:#181818;stroke-width:0.5;"/><text fill="#000000" font-family="Comic Sans MS" font-size="14" lengthAdjust="spacing" textLength="180" x="487.2877" y="205.7042">Build arm trusted firmware</text></g><g id="elem_UC10"><ellipse cx="577.42" cy="127.984" fill="#F1F1F1" rx="65.42" ry="15.484" style="stroke:#181818;stroke-width:0.5;"/><text fill="#000000" font-family="Comic Sans MS" font-size="14" lengthAdjust="spacing" textLength="80" x="534.42" y="131.7316">Build Uboot</text></g><g id="elem_UC3"><ellipse cx="232.1163" cy="202.2233" fill="#F1F1F1" rx="94.1163" ry="21.2233" style="stroke:#181818;stroke-width:0.5;"/><text fill="#000000" font-family="Comic Sans MS" font-size="14" lengthAdjust="spacing" textLength="151" x="156.6163" y="205.0699">Build Kernel container</text></g><g id="elem_UC5"><ellipse cx="577.3288" cy="60.7658" fill="#F1F1F1" rx="69.3288" ry="16.2658" style="stroke:#181818;stroke-width:0.5;"/><text fill="#000000" font-family="Comic Sans MS" font-size="14" lengthAdjust="spacing" textLength="91" x="528.8288" y="64.5133">Build bootbin</text></g><g id="elem_UC6"><ellipse cx="231.7541" cy="285.7508" fill="#F1F1F1" rx="126.7541" ry="27.7508" style="stroke:#181818;stroke-width:0.5;"/><text fill="#000000" font-family="Comic Sans MS" font-size="14" lengthAdjust="spacing" textLength="168" x="142.7541" y="281.3499">Build OS Rootfile system</text><text fill="#000000" font-family="Comic Sans MS" font-size="14" lengthAdjust="spacing" textLength="133" x="162.2541" y="297.6468">compressed image</text></g><g id="elem_UC7"><ellipse cx="231.8073" cy="365.8615" fill="#F1F1F1" rx="72.3073" ry="16.8615" style="stroke:#181818;stroke-width:0.5;"/><text fill="#000000" font-family="Comic Sans MS" font-size="14" lengthAdjust="spacing" textLength="99" x="179.3073" y="369.609">Build emulator</text></g><g id="elem_UC4"><ellipse cx="232.149" cy="447.1298" fill="#F1F1F1" rx="131.149" ry="28.6298" style="stroke:#181818;stroke-width:0.5;"/><text fill="#000000" font-family="Comic Sans MS" font-size="14" lengthAdjust="spacing" textLength="231" x="116.649" y="449.9765">Run Output using qemu emulator</text></g><!--MD5=[338e9af232e5abde8a6bc8ae9f528414]
entity g--><g id="elem_g"><ellipse cx="22" cy="225.5" fill="#F1F1F1" rx="8" ry="8" style="stroke:#181818;stroke-width:0.5;"/><path d="M22,233.5 L22,260.5 M9,241.5 L35,241.5 M22,260.5 L9,275.5 M22,260.5 L35,275.5 " fill="none" style="stroke:#181818;stroke-width:0.5;"/><text fill="#000000" font-family="Comic Sans MS" font-size="14" lengthAdjust="spacing" textLength="32" x="6" y="289.9951">User</text></g><!--MD5=[ac4c4874f9b050fac745292b6ff864d8]
link g to UC0--><g id="link_g_UC0"><path d="M36.91,216.74 C45.65,197.86 58.77,176.34 77,163 C98.47,147.29 125.79,138.46 151.44,133.55 " fill="none" id="g-to-UC0" style="stroke:#181818;stroke-width:1.0;"/><polygon fill="#181818" points="156.54,132.62,146.9667,130.3067,151.6218,133.5207,148.4078,138.1759,156.54,132.62" style="stroke:#181818;stroke-width:1.0;"/></g><!--MD5=[e6283e10ea57013afd663a209f443892]
link g to UC1--><g id="link_g_UC1"><path d="M25.15,216.91 C29.35,179.64 41.59,123.95 77,92 C98.24,72.83 127.8,63.65 155.35,59.49 " fill="none" id="g-to-UC1" style="stroke:#181818;stroke-width:1.0;"/><polygon fill="#181818" points="160.47,58.77,150.9991,56.0677,155.5191,59.4691,152.1177,63.9891,160.47,58.77" style="stroke:#181818;stroke-width:1.0;"/></g><!--MD5=[ea36581ba262fe67fca98703761d6744]
link g to UC3--><g id="link_g_UC3"><path d="M38.14,247.74 C46.74,243.84 57.8,239.18 68,236 C94.63,227.69 124.34,220.81 151.03,215.47 " fill="none" id="g-to-UC3" style="stroke:#181818;stroke-width:1.0;"/><polygon fill="#181818" points="155.97,214.49,146.3652,212.3112,151.0649,215.4596,147.9165,220.1594,155.97,214.49" style="stroke:#181818;stroke-width:1.0;"/></g><!--MD5=[041d149589732fda907bec226c55f6a1]
link g to UC4--><g id="link_g_UC4"><path d="M27.72,293.17 C33.72,325.84 47.17,371.92 77,400 C89.93,412.17 105.93,421.2 122.67,427.89 " fill="none" id="g-to-UC4" style="stroke:#181818;stroke-width:1.0;"/><polygon fill="#181818" points="127.41,429.72,120.4315,422.7701,122.7396,427.9347,117.575,430.2427,127.41,429.72" style="stroke:#181818;stroke-width:1.0;"/></g><!--MD5=[b0c7e162173d539405cb2036e8022ace]
link UC0 to UC5--><g id="link_UC0_UC5"><path d="M292.05,116.48 C355.3,104.15 455.06,84.69 518.07,72.4 " fill="none" id="UC0-to-UC5" style="stroke:#181818;stroke-width:1.0;"/><polygon fill="#181818" points="523.29,71.38,513.6901,69.1796,518.3827,72.3386,515.2238,77.0312,523.29,71.38" style="stroke:#181818;stroke-width:1.0;"/><text fill="#000000" font-family="Comic Sans MS" font-size="13" lengthAdjust="spacing" textLength="45" x="394" y="85.0669">include</text></g><!--MD5=[b8d467fa89d98110410b1ab6942b91c0]
link UC0 to UC8--><g id="link_UC0_UC8"><path d="M289.34,140.3 C345.27,152.51 431.58,171.36 494.99,185.2 " fill="none" id="UC0-to-UC8" style="stroke:#181818;stroke-width:1.0;"/><polygon fill="#181818" points="499.89,186.27,491.9395,180.4571,495.0031,185.2126,490.2476,188.2762,499.89,186.27" style="stroke:#181818;stroke-width:1.0;"/><text fill="#000000" font-family="Comic Sans MS" font-size="13" lengthAdjust="spacing" textLength="45" x="394" y="160.0669">include</text></g><!--MD5=[19941872473ef9231518b8f3404a3ca8]
link UC0 to UC10--><g id="link_UC0_UC10"><path d="M310.09,128 C369.03,128 449.62,128 506.68,128 " fill="none" id="UC0-to-UC10" style="stroke:#181818;stroke-width:1.0;"/><polygon fill="#181818" points="511.78,128,502.78,124,506.78,128,502.78,132,511.78,128" style="stroke:#181818;stroke-width:1.0;"/><text fill="#000000" font-family="Comic Sans MS" font-size="13" lengthAdjust="spacing" textLength="45" x="394" y="124.0669">include</text></g><!--MD5=[eb412541222d53ebf3cb7d94df2bc7f7]
link g to UC6--><g id="link_g_UC6"><path d="M38.29,257.28 C56.46,259.99 88.45,264.75 121.21,269.64 " fill="none" id="g-to-UC6" style="stroke:#181818;stroke-width:1.0;"/><polygon fill="#181818" points="126.47,270.42,118.1495,265.1503,121.5234,269.6909,116.9829,273.0648,126.47,270.42" style="stroke:#181818;stroke-width:1.0;"/></g><!--MD5=[da2753bf84ba0493bc9d84117be41053]
link g to UC7--><g id="link_g_UC7"><path d="M38.17,286.28 C47.32,301.98 60.44,319.95 77,331 C100.62,346.76 130.33,355.49 157.34,360.31 " fill="none" id="g-to-UC7" style="stroke:#181818;stroke-width:1.0;"/><polygon fill="#181818" points="162.35,361.16,154.1531,355.7001,157.4215,360.3172,152.8045,363.5857,162.35,361.16" style="stroke:#181818;stroke-width:1.0;"/></g><!--MD5=[128f4401c13193864d473439bde5865d]
@startuml Taskfile_Use_Cases

skinparam defaultFontName Comic Sans MS

left to right direction
actor "User" as g

package Taskfile_Zynq {
  usecase "Build bootgen" as UC1
  usecase "Build Bootloader" as UC0
  usecase "Build arm trusted firmware" as UC8
  usecase "Build Uboot" as UC10
  usecase "Build Kernel container" as UC3
  usecase "Build bootbin" as UC5
  usecase "Build OS Rootfile system \ncompressed image" as UC6
  usecase "Build emulator" as UC7
  usecase "Run Output using qemu emulator" as UC4
}
g - -> UC0
g - -> UC1
g - -> UC3
g - -> UC4
UC0 - -> UC5 : include
UC0 - -> UC8 : include
UC0 - -> UC10 : include
g - -> UC6
g - -> UC7
@enduml

PlantUML version 1.2022.7(Mon Aug 22 19:01:30 CEST 2022)
(GPL source distribution)
Java Runtime: OpenJDK Runtime Environment
JVM: OpenJDK 64-Bit Server VM
Default Encoding: UTF-8
Language: en
Country: null
--></g></svg>